# Blender v2.79 (sub 0) OBJ File: 'gem_forge.blend'
# www.blender.org
mtllib gem_forge.mtl
o shape1.008
v -0.000897 1.593546 1.005825
v -0.180204 1.648366 1.005825
v 0.064443 2.448570 0.750000
v 0.243750 2.393750 0.750000
v -0.164176 1.700790 1.185132
v 0.015131 1.645970 1.185132
v 0.259778 2.446174 0.929307
v 0.080471 2.500994 0.929307
vt 0.437509 0.265979
vt 0.390711 0.484368
vt 0.390711 0.265979
vt 0.296917 0.265979
vt 0.343715 0.484368
vt 0.296917 0.484368
vt 0.296918 0.531259
vt 0.343715 0.484462
vt 0.343715 0.531260
vt 0.343815 0.531259
vt 0.390612 0.484462
vt 0.390612 0.531260
vt 0.390612 0.265979
vt 0.343814 0.484368
vt 0.343814 0.265979
vt 0.250020 0.265979
vt 0.296817 0.484368
vt 0.250020 0.484368
vt 0.437509 0.484368
vt 0.343715 0.265979
vt 0.296918 0.484462
vt 0.343815 0.484462
vt 0.390612 0.484368
vt 0.296817 0.265979
vn -0.0855 -0.2796 -0.9563
vn 0.0855 0.2796 0.9563
vn 0.2796 0.9145 -0.2924
vn -0.2796 -0.9145 0.2924
vn 0.9563 -0.2924 -0.0000
vn -0.9563 0.2924 0.0000
usemtl None
s off
f 2/1/1 4/2/1 1/3/1
f 5/4/2 7/5/2 8/6/2
f 4/7/3 8/8/3 7/9/3
f 5/10/4 1/11/4 6/12/4
f 1/13/5 7/14/5 6/15/5
f 2/16/6 8/17/6 3/18/6
f 2/1/1 3/19/1 4/2/1
f 5/4/2 6/20/2 7/5/2
f 4/7/3 3/21/3 8/8/3
f 5/10/4 2/22/4 1/11/4
f 1/13/5 4/23/5 7/14/5
f 2/16/6 5/24/6 8/17/6
o shape1.007
v 1.188397 1.649796 1.005825
v 1.009090 1.594976 1.005825
v 0.764443 2.395180 0.750000
v 0.943750 2.450000 0.750000
v 0.993062 1.647401 1.185132
v 1.172369 1.702220 1.185132
v 0.927722 2.502424 0.929307
v 0.748415 2.447605 0.929307
vt 0.296817 0.265979
vt 0.250020 0.484368
vt 0.296818 0.484368
vt 0.390612 0.265979
vt 0.343814 0.484368
vt 0.390612 0.484368
vt 0.390611 0.484462
vt 0.343814 0.531260
vt 0.390611 0.531259
vt 0.296917 0.531260
vt 0.343714 0.484462
vt 0.296917 0.484462
vt 0.296917 0.265979
vt 0.343715 0.484368
vt 0.343715 0.265979
vt 0.390711 0.265979
vt 0.437509 0.484368
vt 0.437509 0.265979
vt 0.250020 0.265979
vt 0.343814 0.265979
vt 0.343814 0.484462
vt 0.343714 0.531259
vt 0.296917 0.484368
vt 0.390712 0.484368
vn 0.0855 -0.2796 -0.9563
vn -0.0855 0.2796 0.9563
vn -0.2796 0.9145 -0.2924
vn 0.2796 -0.9145 0.2924
vn 0.9563 0.2924 0.0000
vn -0.9563 -0.2924 -0.0000
usemtl None
s off
f 9/25/7 11/26/7 12/27/7
f 13/28/8 15/29/8 16/30/8
f 11/31/9 15/32/9 12/33/9
f 14/34/10 10/35/10 9/36/10
f 9/37/11 15/38/11 14/39/11
f 13/40/12 11/41/12 10/42/12
f 9/25/7 10/43/7 11/26/7
f 13/28/8 14/44/8 15/29/8
f 11/31/9 16/45/9 15/32/9
f 14/34/10 13/46/10 10/35/10
f 9/37/11 12/47/11 15/38/11
f 13/40/12 16/48/12 11/41/12
o shape1.006
v 1.194647 1.706046 -0.193325
v 1.015340 1.651226 -0.193325
v 0.770693 2.451430 0.062500
v 0.950000 2.506250 0.062500
v 1.031367 1.598802 -0.014018
v 1.210675 1.653622 -0.014018
v 0.966028 2.453826 0.241807
v 0.786721 2.399006 0.241807
vt 0.390711 0.265979
vt 0.437509 0.484368
vt 0.390711 0.484368
vt 0.343715 0.265979
vt 0.296917 0.484368
vt 0.296917 0.265979
vt 0.296918 0.531259
vt 0.343715 0.484462
vt 0.343715 0.531260
vt 0.390612 0.531260
vt 0.343815 0.484462
vt 0.390612 0.484462
vt 0.343814 0.265979
vt 0.390612 0.484368
vt 0.343814 0.484368
vt 0.296817 0.265979
vt 0.250020 0.484368
vt 0.250020 0.265979
vt 0.437509 0.265979
vt 0.343715 0.484368
vt 0.296918 0.484462
vt 0.343815 0.531259
vt 0.390612 0.265979
vt 0.296817 0.484368
vn -0.0855 0.2796 -0.9563
vn 0.0855 -0.2796 0.9563
vn -0.2796 0.9145 0.2924
vn 0.2796 -0.9145 -0.2924
vn 0.9563 0.2924 -0.0000
vn -0.9563 -0.2924 -0.0000
usemtl None
s off
f 17/49/13 19/50/13 20/51/13
f 22/52/14 24/53/14 21/54/14
f 20/55/15 24/56/15 23/57/15
f 22/58/16 18/59/16 17/60/16
f 22/61/17 20/62/17 23/63/17
f 21/64/18 19/65/18 18/66/18
f 17/49/13 18/67/13 19/50/13
f 22/52/14 23/68/14 24/53/14
f 20/55/15 19/69/15 24/56/15
f 22/58/16 21/70/16 18/59/16
f 22/61/17 17/71/17 20/62/17
f 21/64/18 24/72/18 19/65/18
o shape1.005
v -0.007147 1.649796 -0.193325
v -0.186454 1.704616 -0.193325
v 0.058193 2.504820 0.062500
v 0.237500 2.450000 0.062500
v -0.202482 1.652191 -0.014018
v -0.023175 1.597372 -0.014018
v 0.221472 2.397576 0.241807
v 0.042165 2.452395 0.241807
vt 0.250020 0.265979
vt 0.296818 0.484368
vt 0.296817 0.265979
vt 0.343814 0.265979
vt 0.390612 0.484368
vt 0.390612 0.265979
vt 0.390611 0.484462
vt 0.343814 0.531260
vt 0.390611 0.531259
vt 0.296917 0.531260
vt 0.343714 0.484462
vt 0.296917 0.484462
vt 0.343715 0.265979
vt 0.296917 0.484368
vt 0.343715 0.484368
vt 0.437509 0.265979
vt 0.390712 0.484368
vt 0.437509 0.484368
vt 0.250020 0.484368
vt 0.343814 0.484368
vt 0.343814 0.484462
vt 0.343714 0.531259
vt 0.296917 0.265979
vt 0.390711 0.265979
vn 0.0855 0.2796 -0.9563
vn -0.0855 -0.2796 0.9563
vn 0.2796 0.9145 0.2924
vn -0.2796 -0.9145 -0.2924
vn 0.9563 -0.2924 0.0000
vn -0.9563 0.2924 0.0000
usemtl None
s off
f 26/73/19 28/74/19 25/75/19
f 30/76/20 32/77/20 29/78/20
f 27/79/21 31/80/21 28/81/21
f 30/82/22 26/83/22 25/84/22
f 30/85/23 28/86/23 31/87/23
f 26/88/24 32/89/24 27/90/24
f 26/73/19 27/91/19 28/74/19
f 30/76/20 31/92/20 32/77/20
f 27/79/21 32/93/21 31/80/21
f 30/82/22 29/94/22 26/83/22
f 30/85/23 25/95/23 28/86/23
f 26/88/24 29/96/24 32/89/24
o shape1.004
v 0.968750 0.816987 0.709931
v 0.727268 0.881692 0.709931
v 0.977269 1.814705 0.968750
v 1.218750 1.750000 0.968750
v 0.710522 0.819192 0.951412
v 0.952003 0.754487 0.951412
v 1.202003 1.687500 1.210231
v 0.960522 1.752205 1.210231
vt 0.000058 0.218750
vt 0.062558 0.468750
vt 0.062558 0.218750
vt 0.250068 0.219168
vt 0.187657 0.468814
vt 0.250068 0.468814
vt 0.124993 0.531351
vt 0.062582 0.468939
vt 0.062582 0.531351
vt 0.187530 0.468940
vt 0.125119 0.531351
vt 0.187530 0.531351
vt 0.125121 0.219168
vt 0.187532 0.468814
vt 0.187532 0.219168
vt 0.124996 0.219168
vt 0.062584 0.468814
vt 0.124996 0.468814
vt 0.000058 0.468750
vt 0.187657 0.219168
vt 0.124994 0.468939
vt 0.125119 0.468939
vt 0.125121 0.468814
vt 0.062584 0.219168
vn 0.0670 0.2500 -0.9659
vn -0.0670 -0.2500 0.9659
vn 0.2500 0.9330 0.2588
vn -0.2500 -0.9330 -0.2588
vn 0.9659 -0.2588 0.0000
vn -0.9659 0.2588 -0.0000
usemtl None
s off
f 34/97/25 36/98/25 33/99/25
f 37/100/26 39/101/26 40/102/26
f 35/103/27 39/104/27 36/105/27
f 37/106/28 33/107/28 38/108/28
f 33/109/29 39/110/29 38/111/29
f 34/112/30 40/113/30 35/114/30
f 34/97/25 35/115/25 36/98/25
f 37/100/26 38/116/26 39/101/26
f 35/103/27 40/117/27 39/104/27
f 37/106/28 34/118/28 33/107/28
f 33/109/29 36/119/29 39/110/29
f 34/112/30 37/120/30 40/113/30
o shape1.003
v 0.281250 0.879487 0.709931
v 0.039768 0.814783 0.709931
v -0.210231 1.747795 0.968750
v 0.031250 1.812500 0.968750
v 0.056515 0.752283 0.951412
v 0.297997 0.816987 0.951412
v 0.047997 1.750000 1.210231
v -0.193485 1.685295 1.210231
vt 0.000155 0.218811
vt 0.062607 0.468343
vt 0.062607 0.218811
vt 0.249971 0.218803
vt 0.187608 0.468449
vt 0.249971 0.468449
vt 0.124994 0.530986
vt 0.062631 0.468574
vt 0.062631 0.530986
vt 0.187481 0.468574
vt 0.125119 0.530986
vt 0.187481 0.530986
vt 0.125121 0.218803
vt 0.187483 0.468449
vt 0.187483 0.218803
vt 0.062633 0.218803
vt 0.124996 0.468449
vt 0.124996 0.218803
vt 0.000155 0.468343
vt 0.187608 0.218803
vt 0.124994 0.468574
vt 0.125119 0.468574
vt 0.125121 0.468449
vt 0.062633 0.468449
vn -0.0670 0.2500 -0.9659
vn 0.0670 -0.2500 0.9659
vn -0.2500 0.9330 0.2588
vn 0.2500 -0.9330 -0.2588
vn 0.9659 0.2588 -0.0000
vn -0.9659 -0.2588 0.0000
usemtl None
s off
f 42/121/31 44/122/31 41/123/31
f 45/124/32 47/125/32 48/126/32
f 43/127/33 47/128/33 44/129/33
f 45/130/34 41/131/34 46/132/34
f 41/133/35 47/134/35 46/135/35
f 45/136/36 43/137/36 42/138/36
f 42/121/31 43/139/31 44/122/31
f 45/124/32 46/140/32 47/125/32
f 43/127/33 48/141/33 47/128/33
f 45/130/34 42/142/34 41/131/34
f 41/133/35 44/143/35 47/134/35
f 45/136/36 48/144/36 43/137/36
o shape1.002
v 0.281250 0.816987 0.040069
v 0.039768 0.752283 0.040069
v -0.210231 1.685295 -0.218750
v 0.031250 1.750000 -0.218750
v 0.023022 0.814783 0.281551
v 0.264503 0.879487 0.281551
v 0.014503 1.812500 0.022731
v -0.226978 1.747795 0.022731
vt 0.000070 0.218822
vt 0.062475 0.468468
vt 0.062475 0.218822
vt 0.250011 0.218822
vt 0.187599 0.468468
vt 0.250011 0.468468
vt 0.124936 0.531005
vt 0.062524 0.468593
vt 0.062524 0.531005
vt 0.187472 0.468594
vt 0.125061 0.531005
vt 0.187472 0.531005
vt 0.125063 0.218822
vt 0.187474 0.468468
vt 0.187474 0.218822
vt 0.124938 0.218822
vt 0.062526 0.468468
vt 0.124938 0.468468
vt 0.000070 0.468468
vt 0.187599 0.218822
vt 0.124936 0.468593
vt 0.125061 0.468593
vt 0.125063 0.468468
vt 0.062526 0.218822
vn 0.0670 -0.2500 -0.9659
vn -0.0670 0.2500 0.9659
vn -0.2500 0.9330 -0.2588
vn 0.2500 -0.9330 0.2588
vn 0.9659 0.2588 0.0000
vn -0.9659 -0.2588 -0.0000
usemtl None
s off
f 50/145/37 52/146/37 49/147/37
f 53/148/38 55/149/38 56/150/38
f 51/151/39 55/152/39 52/153/39
f 53/154/40 49/155/40 54/156/40
f 49/157/41 55/158/41 54/159/41
f 50/160/42 56/161/42 51/162/42
f 50/145/37 51/163/37 52/146/37
f 53/148/38 54/164/38 55/149/38
f 51/151/39 56/165/39 55/152/39
f 53/154/40 50/166/40 49/155/40
f 49/157/41 52/167/41 55/158/41
f 50/160/42 53/168/42 56/161/42
o shape1.001
v 0.968750 0.754487 0.040069
v 0.727268 0.819192 0.040069
v 0.977269 1.752205 -0.218750
v 1.218750 1.687500 -0.218750
v 0.744015 0.881692 0.281551
v 0.985497 0.816987 0.281551
v 1.235497 1.750000 0.022731
v 0.994015 1.814705 0.022731
vt 0.000058 0.218750
vt 0.062558 0.468750
vt 0.062558 0.218750
vt 0.250068 0.219168
vt 0.187657 0.468814
vt 0.250068 0.468814
vt 0.124993 0.531351
vt 0.062582 0.468939
vt 0.062582 0.531351
vt 0.187530 0.468940
vt 0.125119 0.531351
vt 0.187530 0.531351
vt 0.125121 0.219168
vt 0.187532 0.468814
vt 0.187532 0.219168
vt 0.124996 0.219168
vt 0.062584 0.468814
vt 0.124996 0.468814
vt 0.000058 0.468750
vt 0.187657 0.219168
vt 0.124994 0.468939
vt 0.125119 0.468939
vt 0.125121 0.468814
vt 0.062584 0.219168
vn -0.0670 -0.2500 -0.9659
vn 0.0670 0.2500 0.9659
vn 0.2500 0.9330 -0.2588
vn -0.2500 -0.9330 0.2588
vn 0.9659 -0.2588 -0.0000
vn -0.9659 0.2588 -0.0000
usemtl None
s off
f 58/169/43 60/170/43 57/171/43
f 61/172/44 63/173/44 64/174/44
f 59/175/45 63/176/45 60/177/45
f 61/178/46 57/179/46 62/180/46
f 57/181/47 63/182/47 62/183/47
f 58/184/48 64/185/48 59/186/48
f 58/169/43 59/187/43 60/170/43
f 61/172/44 62/188/44 63/173/44
f 59/175/45 64/189/45 63/176/45
f 61/178/46 58/190/46 57/179/46
f 57/181/47 60/191/47 63/182/47
f 58/184/48 61/192/48 64/185/48
o shape1
v 1.000000 0.000000 -0.000000
v 0.000000 0.000000 -0.000000
v 0.000000 0.875000 -0.000000
v 1.000000 0.875000 -0.000000
v 0.000000 -0.000000 1.000000
v 1.000000 -0.000000 1.000000
v 1.000000 0.875000 1.000000
v 0.000000 0.875000 1.000000
v 0.625000 0.987500 0.375000
v 0.375000 0.987500 0.375000
v 0.375000 1.487500 0.375000
v 0.625000 1.487500 0.375000
v 0.375000 0.987500 0.625000
v 0.625000 0.987500 0.625000
v 0.625000 1.487500 0.625000
v 0.375000 1.487500 0.625000
vt 0.250380 0.531632
vt 0.499992 0.750043
vt 0.499992 0.531632
vt 0.999973 0.531557
vt 0.750324 0.750000
vt 0.750324 0.531557
vt 0.250082 0.750048
vt 0.499979 0.999945
vt 0.500115 0.999955
vt 0.749971 0.750098
vt 0.749971 0.999955
vt 0.750002 0.531254
vt 0.499941 0.750058
vt 0.499941 0.531254
vt 0.000082 0.531309
vt 0.249954 0.749948
vt 0.249954 0.531309
vt 0.499978 0.343933
vt 0.437526 0.468837
vt 0.437526 0.343933
vt 0.625036 0.343742
vt 0.562501 0.468812
vt 0.562501 0.343742
vt 0.500063 0.468827
vt 0.562497 0.531262
vt 0.562497 0.468827
vt 0.562630 0.531302
vt 0.624944 0.468988
vt 0.624944 0.531302
vt 0.687489 0.343606
vt 0.624892 0.468801
vt 0.624892 0.343606
vt 0.562528 0.343767
vt 0.500037 0.468749
vt 0.500037 0.343767
vt 0.250380 0.750043
vt 0.999973 0.750000
vt 0.250082 0.999945
vt 0.500115 0.750098
vt 0.750002 0.750058
vt 0.000082 0.749948
vt 0.499978 0.468837
vt 0.625036 0.468812
vt 0.500063 0.531262
vt 0.562630 0.468988
vt 0.687489 0.468801
vt 0.562528 0.468749
vn 0.0000 0.0000 -1.0000
vn 0.0000 -0.0000 1.0000
vn 0.0000 1.0000 0.0000
vn 0.0000 -1.0000 -0.0000
vn 1.0000 0.0000 0.0000
vn -1.0000 0.0000 0.0000
usemtl None
s off
f 66/193/49 68/194/49 65/195/49
f 70/196/50 72/197/50 69/198/50
f 67/199/51 71/200/51 68/194/51
f 69/201/52 65/202/52 70/203/52
f 65/204/53 71/205/53 70/206/53
f 69/207/54 67/208/54 66/209/54
f 74/210/49 76/211/49 73/212/49
f 78/213/50 80/214/50 77/215/50
f 75/216/51 79/217/51 76/218/51
f 77/219/52 73/220/52 78/221/52
f 73/222/53 79/223/53 78/224/53
f 77/225/54 75/226/54 74/227/54
f 66/193/49 67/228/49 68/194/49
f 70/196/50 71/229/50 72/197/50
f 67/199/51 72/230/51 71/200/51
f 69/201/52 66/231/52 65/202/52
f 65/204/53 68/232/53 71/205/53
f 69/207/54 72/233/54 67/208/54
f 74/210/49 75/234/49 76/211/49
f 78/213/50 79/235/50 80/214/50
f 75/216/51 80/236/51 79/217/51
f 77/219/52 74/237/52 73/220/52
f 73/222/53 76/238/53 79/223/53
f 77/225/54 80/239/54 75/226/54
