# Blender v2.82 (sub 7) OBJ File: 'gem_forge.blend'
# www.blender.org
mtllib gemforge.mtl
o Object_shape1
v 0.000000 0.000000 0.000000
v 1.000000 0.875000 0.000000
v 1.000000 0.000000 0.000000
v 1.000000 -0.000000 1.000000
v 0.000000 0.875000 1.000000
v 0.000000 -0.000000 1.000000
v 0.000000 0.875000 0.000000
v 1.000000 0.875000 1.000000
v 0.375000 0.987500 0.375000
v 0.625000 1.487500 0.375000
v 0.625000 0.987500 0.375000
v 0.625000 0.987500 0.625000
v 0.375000 1.487500 0.625000
v 0.375000 0.987500 0.625000
v 0.375000 1.487500 0.375000
v 0.625000 1.487500 0.625000
v -0.180204 1.648366 1.005825
v 0.243750 2.393750 0.750000
v -0.000897 1.593546 1.005825
v -0.164176 1.700790 1.185132
v 0.259778 2.446174 0.929307
v 0.080471 2.500994 0.929307
v 0.015131 1.645970 1.185132
v 0.064443 2.448570 0.750000
v 1.188397 1.649796 1.005825
v 0.764443 2.395180 0.750000
v 0.943750 2.450000 0.750000
v 0.993062 1.647401 1.185132
v 0.927722 2.502424 0.929307
v 0.748415 2.447605 0.929307
v 1.172369 1.702220 1.185132
v 1.009090 1.594976 1.005825
v 1.194647 1.706046 -0.193325
v 0.770693 2.451430 0.062500
v 0.950000 2.506250 0.062500
v 1.210675 1.653622 -0.014018
v 0.786721 2.399006 0.241807
v 1.031367 1.598802 -0.014018
v 0.966028 2.453826 0.241807
v 1.015340 1.651226 -0.193325
v -0.186454 1.704616 -0.193325
v 0.237500 2.450000 0.062500
v -0.007147 1.649796 -0.193325
v -0.023175 1.597372 -0.014018
v 0.042165 2.452395 0.241807
v -0.202482 1.652191 -0.014018
v 0.058193 2.504820 0.062500
v 0.221472 2.397576 0.241807
v 0.972244 0.819192 0.726458
v 1.222446 1.687500 1.222382
v 0.968030 0.754487 0.967903
v 0.730507 0.881692 0.738988
v 0.980710 1.750000 1.234912
v 0.984924 1.814705 0.993467
v 1.226661 1.752205 0.980938
v 0.726292 0.816987 0.980433
v 0.276542 0.819192 0.972244
v -0.219382 1.687500 1.222446
v 0.035097 0.754487 0.968030
v 0.264012 0.881692 0.730507
v -0.231912 1.750000 0.980709
v 0.009533 1.814705 0.984924
v 0.022062 1.752205 1.226660
v 0.022567 0.816987 0.726292
v 0.027756 0.819192 0.273542
v -0.222446 1.687500 -0.222382
v 0.031970 0.754487 0.032097
v 0.269493 0.881692 0.261012
v 0.019291 1.750000 -0.234912
v 0.015076 1.814705 0.006533
v -0.226660 1.752205 0.019062
v 0.273708 0.816987 0.019567
v 0.725426 0.819192 0.023427
v 1.225642 1.687500 -0.218082
v 0.966761 0.754487 0.031854
v 0.733735 0.881692 0.265346
v 1.233951 1.750000 0.023837
v 0.992616 1.814705 0.015409
v 0.984308 1.752205 -0.226509
v 0.975070 0.816987 0.273774
v -0.164176 1.700790 1.185132
v 0.080471 2.500994 0.929307
v -0.180204 1.648366 1.005825
v 0.064443 2.448570 0.750000
vt 0.750000 0.531250
vt 0.750000 0.750000
vt 1.000000 0.750000
vt 1.000000 0.531250
vt 0.250000 0.750000
vt 0.250000 1.000000
vt 0.500000 1.000000
vt 0.500000 0.750000
vt 0.500000 1.000000
vt 0.500000 0.750000
vt 0.750000 0.750000
vt 0.750000 1.000000
vt 0.500000 0.531250
vt 0.250000 0.531250
vt 0.250000 0.750000
vt -0.000000 0.750000
vt -0.000000 0.531250
vt 0.500000 0.343750
vt 0.500000 0.468750
vt 0.437500 0.468750
vt 0.437500 0.343750
vt 0.625000 0.343750
vt 0.625000 0.468750
vt 0.562500 0.468750
vt 0.562500 0.343750
vt 0.500000 0.531250
vt 0.562500 0.531250
vt 0.562500 0.468750
vt 0.562500 0.531250
vt 0.562500 0.468750
vt 0.625000 0.468750
vt 0.625000 0.531250
vt 0.687500 0.343750
vt 0.687500 0.468750
vt 0.125000 0.218750
vt 0.187500 0.218750
vt 0.187500 0.468750
vt 0.125000 0.468750
vt 0.250020 0.265979
vt 0.250020 0.484368
vt 0.296818 0.484368
vt 0.296817 0.265979
vt 0.062558 0.218750
vt 0.062558 0.468750
vt 0.000082 0.468750
vt 0.000082 0.218750
vt 0.437509 0.265979
vt 0.437509 0.484368
vt 0.390711 0.484368
vt 0.390711 0.265979
vt 0.296875 0.265625
vt 0.250000 0.265625
vt 0.250000 0.484375
vt 0.296875 0.484375
vt 0.343814 0.265979
vt 0.390612 0.265979
vt 0.390612 0.484368
vt 0.343814 0.484368
vt 0.343815 0.484462
vt 0.343815 0.531259
vt 0.343815 0.531259
vt 0.343815 0.484462
vt 0.296917 0.265979
vt 0.296917 0.484368
vt 0.296917 0.484368
vt 0.296917 0.265979
vt 0.343715 0.265979
vt 0.343715 0.484368
vt 0.296917 0.484368
vt 0.296917 0.265979
vt 0.296817 0.265979
vt 0.296817 0.484368
vt 0.250020 0.484368
vt 0.250020 0.265979
vt 0.390611 0.484462
vt 0.343814 0.484463
vt 0.343814 0.531260
vt 0.390611 0.531260
vt 0.296875 0.531250
vt 0.343750 0.531250
vt 0.343750 0.484375
vt 0.296875 0.484375
vt 0.249902 0.218805
vt 0.249902 0.468451
vt 0.187491 0.468451
vt 0.187491 0.218805
vt 0.437500 0.265625
vt 0.390625 0.265625
vt 0.390625 0.484375
vt 0.437500 0.484375
vt 0.296875 0.531250
vt 0.296875 0.484375
vt 0.343750 0.484375
vt 0.343750 0.531250
vt 0.296875 0.531250
vt 0.296875 0.484375
vt 0.343750 0.484375
vt 0.343750 0.531250
vt 0.125000 0.531250
vt 0.062500 0.468750
vt 0.062500 0.531250
vt 0.343814 0.265979
vt 0.390612 0.265979
vt 0.343715 0.265979
vt 0.296917 0.265979
vt 0.343715 0.484368
vt 0.390612 0.531260
vt 0.343815 0.531259
vt 0.343815 0.484462
vt 0.390612 0.484462
vt 0.390612 0.484462
vt 0.390612 0.531260
vt 0.390625 0.265625
vt 0.390625 0.484375
vt 0.437500 0.484375
vt 0.437500 0.265625
vt 0.296875 0.531250
vt 0.343750 0.531250
vt 0.343750 0.484375
vt 0.390711 0.265979
vt 0.437509 0.265979
vt 0.437509 0.484368
vt 0.390711 0.484368
vt 0.390611 0.484462
vt 0.343814 0.484463
vt 0.343814 0.531260
vt 0.390611 0.531260
vt 0.250000 0.218750
vt 0.250000 0.468750
vt 0.187500 0.468750
vt 0.125000 0.468750
vt 0.125000 0.531250
vt 0.187500 0.531250
vt 0.062500 0.218750
vt 0.125000 0.218750
vt 0.125000 0.468750
vt 0.062500 0.468750
vt 0.249902 0.218805
vt 0.249902 0.468451
vt 0.187491 0.468451
vt 0.187491 0.218805
vt 0.343750 0.484375
vt 0.343750 0.265625
vt 0.390625 0.265625
vt 0.390625 0.484375
vt 0.062500 0.218750
vt 0.062500 0.468750
vt 0.249902 0.218805
vt 0.249902 0.468451
vt 0.187491 0.468451
vt 0.187491 0.218805
vt 0.187530 0.468940
vt 0.125119 0.468939
vt 0.125119 0.531351
vt 0.187530 0.531351
vt 0.124993 0.531351
vt 0.124994 0.468939
vt 0.062582 0.468939
vt 0.062582 0.531351
vt 0.125000 0.218750
vt 0.187500 0.468750
vt 0.125000 0.468750
vt 0.062558 0.218750
vt 0.062558 0.468750
vt 0.000106 0.468774
vt 0.000106 0.218774
vt 0.062500 0.218750
vt 0.062500 0.468750
vt 0.500000 0.531250
vt 0.500000 0.750000
vt 0.250000 0.750000
vt 0.250000 0.531250
vt 0.062558 0.218702
vt 0.062558 0.468702
vt 0.000082 0.468726
vt 0.000082 0.218726
vt 0.062584 0.219168
vt 0.124996 0.219168
vt 0.124996 0.468814
vt 0.187500 0.468750
vt 0.125000 0.468750
vt 0.125000 0.531250
vt 0.187500 0.531250
vt 0.000000 0.468750
vt 0.000000 0.218750
vt 0.390612 0.265979
vt 0.343814 0.265979
vt 0.187500 0.468750
vt 0.125048 0.219046
vt 0.187459 0.219046
vt 0.187459 0.468692
vt 0.125048 0.468692
vt 0.124993 0.531351
vt 0.124994 0.468939
vt 0.062582 0.468939
vt 0.062582 0.531351
vt 0.187530 0.468940
vt 0.125119 0.468939
vt 0.125119 0.531351
vt 0.187530 0.531351
vt 0.296917 0.265979
vt 0.343715 0.484368
vt 0.343715 0.265979
vt 0.124993 0.531351
vt 0.124994 0.468939
vt 0.062582 0.468939
vt 0.062582 0.531351
vt 0.296875 0.265625
vt 0.343750 0.265625
vt 0.343750 0.484375
vt 0.296875 0.484375
vt 0.343750 0.484375
vt 0.437509 0.265979
vt 0.437509 0.484368
vt 0.250000 0.265625
vt 0.296875 0.265625
vt 0.250000 0.484375
vn 0.0000 -0.0000 1.0000
vn 0.0000 1.0000 0.0000
vn 0.0000 -1.0000 -0.0000
vn 1.0000 0.0000 0.0000
vn -1.0000 0.0000 0.0000
vn 0.0000 0.0000 -1.0000
vn 0.0332 0.2500 0.9677
vn 0.0855 0.2796 -0.9563
vn 0.0501 -0.2500 0.9669
vn -0.0855 -0.2796 -0.9563
vn 0.0855 -0.2796 -0.9563
vn 0.9563 0.2924 -0.0000
vn 0.0855 -0.2796 0.9563
vn -0.9563 -0.2924 -0.0000
vn 0.2796 -0.9145 0.2924
vn 0.2796 0.9145 0.2924
vn -0.0169 -0.2588 0.9658
vn -0.9563 0.2924 -0.0000
vn 0.2796 0.9145 -0.2924
vn -0.2796 0.9145 0.2924
vn 0.2589 0.9330 -0.2499
vn -0.0855 -0.2796 0.9563
vn 0.9563 -0.2924 0.0000
vn 0.2796 -0.9145 -0.2924
vn -0.2796 -0.9145 0.2924
vn -0.2796 0.9145 -0.2924
vn -0.0855 0.2796 -0.9563
vn -0.2796 -0.9145 -0.2924
vn 0.9653 -0.2588 0.0337
vn -0.2589 -0.9330 0.2499
vn -0.0169 0.2588 0.9658
vn 0.0169 -0.2588 -0.9658
vn -0.9653 0.2588 -0.0337
vn -0.9658 -0.2588 -0.0169
vn 0.2545 -0.9330 -0.2544
vn -0.2544 0.9330 -0.2545
vn -0.9669 0.2500 0.0501
vn -0.9669 -0.2500 0.0501
vn 0.0169 0.2588 -0.9658
vn 0.9669 -0.2500 -0.0501
vn 0.9658 0.2588 0.0169
vn -0.2544 -0.9330 -0.2545
vn -0.0332 -0.2500 -0.9677
vn -0.0855 0.2796 0.9563
vn 0.9669 0.2500 -0.0501
vn -0.0501 0.2500 -0.9669
vn -0.2545 0.9330 0.2544
vn 0.2544 -0.9330 0.2545
vn 0.2544 0.9330 0.2545
vn 0.0855 0.2796 0.9563
usemtl Material
s 1
f 4/1/1 8/2/1 5/3/1 6/4/1
f 7/5/2 5/6/2 8/7/2 2/8/2
f 6/9/3 1/10/3 3/11/3 4/12/3
f 3/13/4 2/8/4 8/2/4 4/1/4
f 6/14/5 5/15/5 7/16/5 1/17/5
f 9/18/6 15/19/6 10/20/6 11/21/6
f 12/22/1 16/23/1 13/24/1 14/25/1
f 15/19/2 13/26/2 16/27/2 10/28/2
f 14/29/3 9/30/3 11/31/3 12/32/3
f 11/33/4 10/34/4 16/23/4 12/22/4
f 14/25/5 13/24/5 15/19/5 9/18/5
f 76/35/7 80/36/7 77/37/7 78/38/7
f 41/39/8 47/40/8 42/41/8 43/42/8
f 57/43/9 63/44/9 58/45/9 59/46/9
f 17/47/10 24/48/10 18/49/10 19/50/10
f 25/51/11 32/52/11 26/53/11 27/54/11
f 36/55/12 33/56/12 35/57/12 39/58/12
f 17/59/1 20/60/1 81/61/1 83/62/1
f 20/63/1 22/64/1 82/65/1 81/66/1
f 36/67/13 39/68/13 37/69/13 38/70/13
f 38/71/14 37/72/14 34/73/14 40/74/14
f 31/75/15 28/76/15 32/77/15 25/78/15
f 47/79/16 45/80/16 48/81/16 42/82/16
f 51/83/17 50/84/17 53/85/17 56/86/17
f 41/87/18 46/88/18 45/89/18 47/90/18
f 18/91/19 24/92/19 22/93/19 21/94/19
f 35/95/20 34/96/20 37/97/20 39/98/20
f 79/99/21 78/38/21 77/100/21 74/101/21
f 44/102/22 48/81/22 45/89/22 46/103/22
f 44/104/23 43/105/23 42/82/23 48/106/23
f 36/107/24 38/108/24 40/109/24 33/110/24
f 20/60/25 17/59/25 19/111/25 23/112/25
f 28/113/14 30/114/14 26/115/14 32/116/14
f 26/117/26 30/118/26 29/119/26 27/54/26
f 33/120/27 40/121/27 34/122/27 35/123/27
f 44/124/28 46/125/28 41/126/28 43/127/28
f 75/128/29 74/129/29 77/37/29 80/36/29
f 76/130/30 73/131/30 75/132/30 80/133/30
f 65/134/31 68/135/31 70/136/31 71/137/31
f 67/138/32 66/139/32 69/140/32 72/141/32
f 19/142/23 18/143/23 21/144/23 23/145/23
f 73/146/33 76/35/33 78/38/33 79/147/33
f 59/148/34 58/149/34 61/150/34 64/151/34
f 60/152/35 57/153/35 59/154/35 64/155/35
f 71/156/36 70/157/36 69/158/36 66/159/36
f 52/160/37 56/86/37 53/161/37 54/162/37
f 65/163/38 71/164/38 66/165/38 67/166/38
f 49/167/39 52/160/39 54/162/39 55/168/39
f 1/169/6 7/170/6 2/171/6 3/172/6
f 49/173/40 55/174/40 50/175/40 51/176/40
f 57/177/41 60/178/41 62/179/41 63/44/41
f 52/180/42 49/181/42 51/182/42 56/183/42
f 73/146/43 79/147/43 74/184/43 75/185/43
f 28/186/44 31/187/44 29/119/44 30/114/44
f 68/135/45 72/141/45 69/188/45 70/136/45
f 60/189/46 64/190/46 61/191/46 62/192/46
f 63/193/47 62/194/47 61/195/47 58/196/47
f 68/197/48 65/198/48 67/199/48 72/200/48
f 25/201/12 27/54/12 29/202/12 31/203/12
f 55/204/49 54/205/49 53/206/49 50/207/49
f 20/208/50 23/209/50 21/210/50 22/64/50
f 22/93/1 24/92/1 84/211/1 82/212/1
f 24/48/1 17/47/1 83/213/1 84/214/1
f 83/215/18 81/216/18 82/65/18 84/217/18
